<svg width="26" height="26" viewBox="0 0 26 26" fill="none" xmlns="http://www.w3.org/2000/svg">
<g filter="url(#filter0_b_1_58)">
<path d="M15.6263 20C15.6263 19.1364 16.3259 18.4369 17.1895 18.4369C18.0531 18.4369 18.7527 19.1364 18.7527 20C18.7527 20.8637 18.0531 21.5632 17.1895 21.5632C16.3259 21.5632 15.6263 20.8637 15.6263 20Z" stroke="white" stroke-width="2" stroke-linecap="round" stroke-linejoin="round"/>
</g>
<g filter="url(#filter1_b_1_58)">
<path d="M7.28955 20C7.28955 19.1364 7.98906 18.4369 8.85271 18.4369C9.71635 18.4369 10.4159 19.1364 10.4159 20C10.4159 20.8637 9.71635 21.5632 8.85271 21.5632C7.98906 21.5632 7.28955 20.8637 7.28955 20Z" stroke="white" stroke-width="2" stroke-linecap="round" stroke-linejoin="round"/>
</g>
<g filter="url(#filter2_b_1_58)">
<path d="M2.07898 3.84738H4.73635L6.96677 15.2163C7.21479 16.4835 8.30519 17.3947 9.57187 17.3947H19.7948" stroke="white" stroke-width="2" stroke-linecap="round" stroke-linejoin="round"/>
</g>
<g filter="url(#filter3_b_1_58)">
<path d="M5.20532 5.93158H21.879L21.1556 11.6288C21.0398 12.5415 20.2515 13.2263 19.3168 13.2263H6.5948" stroke="white" stroke-width="2" stroke-linecap="round" stroke-linejoin="round"/>
</g>
<defs>
<filter id="filter0_b_1_58" x="5.94213" y="8.75265" width="22.4948" height="22.4947" filterUnits="userSpaceOnUse" color-interpolation-filters="sRGB">
<feFlood flood-opacity="0" result="BackgroundImageFix"/>
<feGaussianBlur in="BackgroundImageFix" stdDeviation="4.34211"/>
<feComposite in2="SourceAlpha" operator="in" result="effect1_backgroundBlur_1_58"/>
<feBlend mode="normal" in="SourceGraphic" in2="effect1_backgroundBlur_1_58" result="shape"/>
</filter>
<filter id="filter1_b_1_58" x="-2.39466" y="8.75265" width="22.4948" height="22.4947" filterUnits="userSpaceOnUse" color-interpolation-filters="sRGB">
<feFlood flood-opacity="0" result="BackgroundImageFix"/>
<feGaussianBlur in="BackgroundImageFix" stdDeviation="4.34211"/>
<feComposite in2="SourceAlpha" operator="in" result="effect1_backgroundBlur_1_58"/>
<feBlend mode="normal" in="SourceGraphic" in2="effect1_backgroundBlur_1_58" result="shape"/>
</filter>
<filter id="filter2_b_1_58" x="-7.60523" y="-5.83683" width="37.0842" height="32.9158" filterUnits="userSpaceOnUse" color-interpolation-filters="sRGB">
<feFlood flood-opacity="0" result="BackgroundImageFix"/>
<feGaussianBlur in="BackgroundImageFix" stdDeviation="4.34211"/>
<feComposite in2="SourceAlpha" operator="in" result="effect1_backgroundBlur_1_58"/>
<feBlend mode="normal" in="SourceGraphic" in2="effect1_backgroundBlur_1_58" result="shape"/>
</filter>
<filter id="filter3_b_1_58" x="-4.47889" y="-3.75263" width="36.0421" height="26.6632" filterUnits="userSpaceOnUse" color-interpolation-filters="sRGB">
<feFlood flood-opacity="0" result="BackgroundImageFix"/>
<feGaussianBlur in="BackgroundImageFix" stdDeviation="4.34211"/>
<feComposite in2="SourceAlpha" operator="in" result="effect1_backgroundBlur_1_58"/>
<feBlend mode="normal" in="SourceGraphic" in2="effect1_backgroundBlur_1_58" result="shape"/>
</filter>
</defs>
</svg>
